<?xml version="1.0" encoding="UTF-8"?> <svg xmlns="http://www.w3.org/2000/svg" id="Layer_1" data-name="Layer 1" viewBox="0 0 2397.33 1701.85"><defs><style>.cls-1{fill:#fcca1c;}.cls-2{fill:#bccc33;}.cls-3{fill:#ea6c7b;}.cls-4{fill:#fff;}.cls-5{fill:#6d6968;}</style></defs><path class="cls-1" d="M1600,1362.92a707.63,707.63,0,0,1,359.55,97.86l239.71-421.33C2022.93,935.9,1818.38,876.35,1600,876.35s-422.93,59.55-599.26,163.1l239.71,421.33A707.63,707.63,0,0,1,1600,1362.92Z" transform="translate(-401.33 -876.35)"></path><path class="cls-2" d="M1240.44,1460.78l-239.7-421.33c-358.22,210.34-599.41,603.13-599.41,1053.34H880.8C880.8,1822.66,1025.51,1587,1240.44,1460.78Z" transform="translate(-401.33 -876.35)"></path><path class="cls-3" d="M2319.2,2092.79h479.47c0-450.21-241.19-843-599.41-1053.34l-239.7,421.33C2174.49,1587,2319.2,1822.66,2319.2,2092.79Z" transform="translate(-401.33 -876.35)"></path><path class="cls-4" d="M1339.77,1225.73l-70.55-80.39,35.39,116-11.83,3.61L1249,1121.47l11.23-3.43,79.56,91.22L1355.3,1089l11.23-3.43,43.78,143.52-11.84,3.61L1363,1116.5l-13.82,106.35Z" transform="translate(-401.33 -876.35)"></path><path class="cls-4" d="M1444.39,1211.65l68.85-10.41,1.81,12L1434,1225.5l-22.43-148.34,81.08-12.27,1.84,12.21-68.84,10.41,8.4,55.55,49.35-7.47,1.69,11.15-49.35,7.47Z" transform="translate(-401.33 -876.35)"></path><path class="cls-4" d="M1534.58,1211.42l-3.39-150,46.54-1.05c29.14-.66,49.89,17.4,50.72,54l.88,39.15c.82,36.39-19.07,56.21-48.21,56.86Zm45-13.15c22.44-.5,38.06-14.48,37.33-47l-.78-34.26c-.73-32.34-17-44.75-39.38-44.24l-32.91.74,2.83,125.53Z" transform="translate(-401.33 -876.35)"></path><path class="cls-4" d="M1676,1063l-10.36,149.69-12.34-.86,10.36-149.68Z" transform="translate(-401.33 -876.35)"></path><path class="cls-4" d="M1727,1067.46l-16.28,98.68c-4.08,24.78,9.7,41.71,30.19,45.09,20.9,3.44,39.08-8.87,43.06-33l16.28-98.68,12.2,2-16.2,98.26c-5,30.45-28.76,48.1-57.32,43.4-28.76-4.74-45.36-29-40.34-59.49l16.2-98.26Z" transform="translate(-401.33 -876.35)"></path><path class="cls-4" d="M1869.9,1228.81l-11.23-106.37-38.06,115.18-11.74-3.88,47.07-142.46,11.15,3.69,12.33,120.4,82-89.22,11.15,3.69-47.07,142.46-11.75-3.88L1951.92,1153l-72.66,78.86Z" transform="translate(-401.33 -876.35)"></path><path class="cls-4" d="M646.27,1732.68l128.46,50.13,23.62-60.56,11.3,4.41-28.12,72.08-139.76-54.53Z" transform="translate(-401.33 -876.35)"></path><path class="cls-4" d="M769.34,1693l-43.75-23.32c-27.23-14.51-36.73-42.39-22.92-68.3,13.61-25.54,42.25-33.56,69.47-19.05l43.76,23.32c27.23,14.52,36.34,42.67,22.73,68.2C824.82,1699.79,796.57,1707.55,769.34,1693Zm41.11-76.23L766,1593.08c-21.6-11.51-42.51-4.84-52.57,14-9.77,18.32-4.51,39.66,17.47,51.37l44.69,23.83c21.59,11.51,42.23,4.92,52.38-14.14C837.59,1650,832.61,1628.61,810.45,1616.8Z" transform="translate(-401.33 -876.35)"></path><path class="cls-4" d="M883.7,1593.62l-144.22-57.7,7.54-10.07L868.35,1574l-82-100.7,6.54-8.73,119.69,50.34-80.35-102.87,7.67-10.24,95.7,122.49-7,9.4L809.9,1484.13l81,99.93Z" transform="translate(-401.33 -876.35)"></path><path class="cls-4" d="M2374,1422.24l-54,42.48,43.16,54.9,54-42.47,7.64,9.72-118,92.72-7.64-9.73,55.22-43.4-43.16-54.9-55.22,43.4-7.64-9.73,118-92.72Z" transform="translate(-401.33 -876.35)"></path><path class="cls-4" d="M2453.65,1531.36,2327.77,1613l-6.73-10.38L2446.92,1521Z" transform="translate(-401.33 -876.35)"></path><path class="cls-4" d="M2471.34,1660.54c20.87-11.52,26.78-32.2,16.87-50.92-10.49-19.83-31-25.36-55.45-12.42l-42,22.2c-21.63,11.44-27.63,32.41-17.72,51.13,10,18.9,30.72,25.74,52.35,14.29l7.53-4-17.27-32.62,10-5.27,23,43.55-17.3,9.16c-27.09,14.33-55.6,6.4-69.24-19.36s-4-53.61,23-67.94l44.58-23.59c27.09-14.33,55.51-6.59,69.14,19.17,13.44,25.4,4.24,53-21.8,67.53Z" transform="translate(-401.33 -876.35)"></path><path class="cls-4" d="M2540.4,1697.26l-64.46,23.85,24.24,65.49,64.47-23.86,4.29,11.6-140.71,52.07-4.29-11.6,65.86-24.38L2465.56,1725l-65.86,24.37-4.3-11.6,140.71-52.07Z" transform="translate(-401.33 -876.35)"></path><path class="cls-5" d="M1554.69,2479.57c-126.75,128.63-329.07,131.86-451.89,7.22s-119.64-330,7.11-458.59S2250.3,1322.26,2250.3,1322.26,1681.44,2350.94,1554.69,2479.57Z" transform="translate(-401.33 -876.35)"></path><ellipse class="cls-4" cx="927.96" cy="1387.38" rx="184.98" ry="187.73"></ellipse></svg> 